<svg width="407" height="472" viewBox="0 0 407 472" fill="none" xmlns="http://www.w3.org/2000/svg">
<path d="M361.031 136.936C355.861 136.141 352.315 131.345 353.112 126.213C353.704 122.39 357.129 102.819 366.423 92.9785C370.001 89.1838 375.991 88.9862 379.823 92.5513C383.641 96.1023 383.835 102.057 380.253 105.852C376.319 110.019 372.968 121.945 371.848 129.081C371.048 134.158 366.277 137.722 361.031 136.936Z" fill="#3D3D3D"/>
<path d="M15.0849 175.594C13.2706 168.597 8.76232 157.056 4.43508 153.289C0.496489 149.861 0.103102 143.917 3.55541 140.012C6.99919 136.098 12.9834 135.698 16.9315 139.139C27.1462 148.028 32.483 167.173 33.4508 170.917C34.7466 175.948 31.6924 181.066 26.6287 182.361C21.453 183.653 16.375 180.541 15.0849 175.594Z" fill="#3D3D3D"/>
<g clip-path="url(#clip0)">
<path d="M434.789 322.005C429.291 309.679 421.707 297.542 410.617 283.522C382.653 248.332 374.122 169.86 374.027 169.108C373.648 165.344 370.994 162.239 367.487 161.11C363.884 159.981 359.998 161.016 357.439 163.838C324.072 201.193 338.101 258.87 345.684 281.923C347.77 288.227 350.045 295.66 351.655 303.187C363.978 364.064 340.186 391.633 334.593 397.184C329.19 398.689 325.493 397.937 322.08 394.267C310.326 381.377 306.44 339.13 311.938 284.087C313.076 272.89 312.791 262.822 311.179 253.413C299.584 185.759 257.07 142.362 246.247 127.143C216.482 83.1085 213.449 9.81166 213.354 9.15302C213.26 5.67165 211.269 2.56665 208.141 1.0612C205.107 -0.444256 201.411 -0.256074 198.567 1.71984C148.896 35.4985 153.162 116.887 160.081 162.333C161.693 172.871 164.821 183.598 170.224 197.147C189.467 245.604 166.433 308.174 166.243 308.739C166.053 309.303 165.864 309.773 165.769 310.338C162.83 325.769 157.901 334.99 152.403 334.99C151.835 334.99 151.266 334.896 150.602 334.708C143.872 333.296 140.365 326.145 140.27 319.935C139.891 239.676 59.4127 212.672 58.5596 212.389C54.9575 211.26 50.9763 212.295 48.5117 215.212C45.9523 218.129 45.4783 222.175 47.1846 225.562C48.1325 227.538 51.1658 236.194 49.0804 266.774C47.2794 294.249 42.2554 321.441 34.1981 347.504C15.0502 409.98 18.0836 469.164 18.2731 471.986C32.9971 632.23 263.252 660.308 399.904 570.029C414.881 560.149 427.11 548.859 436.115 536.439C486.545 466.811 456.875 372.25 434.789 322.005ZM84.5335 475.091C84.8178 480.266 80.8366 484.689 75.623 484.971H75.0543C70.0303 484.971 65.8595 481.113 65.5751 476.126C64.722 462.389 64.9116 447.993 65.9543 432.374C66.3335 427.199 70.8835 423.341 76.097 423.623C81.3106 423.999 85.2918 428.515 84.9126 433.69C83.869 448.558 83.6803 462.107 84.5335 475.091ZM89.1773 391.727C88.6086 396.525 84.5325 400.007 79.7929 400.007C79.4138 400.007 79.0346 400.007 78.5606 399.913C73.4419 399.254 69.745 394.643 70.3138 389.469L74.8638 353.149C75.5273 348.068 80.1721 344.399 85.4804 344.964C90.694 345.622 94.3908 350.327 93.7273 355.502L89.1773 391.727Z" fill="#3D3D3D"/>
</g>
<defs>
<clipPath id="clip0">
<rect width="400" height="472" fill="white" transform="translate(17)"/>
</clipPath>
</defs>
</svg>
