<?xml version="1.0" standalone="no"?>
<!DOCTYPE svg PUBLIC "-//W3C//DTD SVG 20010904//EN"
 "http://www.w3.org/TR/2001/REC-SVG-20010904/DTD/svg10.dtd">
<svg id="icon-campfire" version="1.0" xmlns="http://www.w3.org/2000/svg"
 width="370.000000pt" height="371.000000pt" viewBox="0 0 370.000000 371.000000"
 preserveAspectRatio="xMidYMid meet">

<g transform="translate(0.000000,371.000000) scale(0.100000,-0.100000)"
fill="#000000" stroke="none">
<path fill="ff6b09" style="fill: var(--color1, #33ff00)" d="M1027 3450 c-232 -62 -400 -245 -437 -476 -6 -38 -13 -70 -15 -72 -2
-3 -36 19 -74 47 -49 35 -80 51 -101 51 -28 0 -34 -6 -54 -52 -115 -261 -138
-427 -80 -590 7 -21 12 -38 10 -38 -2 0 -38 11 -80 25 -92 30 -91 30 -116 5
-18 -18 -20 -33 -20 -127 0 -124 12 -211 41 -303 26 -79 79 -180 125 -237 l35
-42 -43 -11 c-64 -15 -93 -33 -96 -59 -4 -27 49 -167 86 -226 71 -115 204
-225 316 -261 28 -9 55 -20 59 -24 5 -4 -18 -29 -51 -54 -93 -73 -91 -93 19
-176 95 -71 214 -130 324 -161 61 -18 107 -23 195 -24 l115 0 -27 -81 c-31
-91 -62 -266 -53 -295 4 -11 17 -24 29 -28 30 -12 224 22 317 55 137 48 285
142 365 230 l31 34 61 -57 c134 -128 322 -218 524 -252 163 -27 176 -18 158
108 -14 98 -26 148 -53 223 l-23 63 121 1 c99 1 135 6 210 28 108 32 214 88
311 162 102 77 103 98 13 169 -33 26 -57 51 -52 55 4 4 32 15 61 25 111 36
243 145 314 260 37 59 90 199 86 226 -3 26 -32 44 -95 59 l-43 11 40 51 c49
61 112 190 135 273 17 64 32 315 21 359 -11 46 -42 51 -126 22 -40 -14 -77
-26 -81 -26 -4 0 2 28 13 63 23 72 28 222 9 302 -12 51 -82 237 -107 288 -23
43 -61 36 -145 -24 -38 -28 -71 -50 -73 -48 -1 2 -10 41 -18 85 -29 152 -112
283 -232 369 -74 52 -115 71 -211 96 -90 23 -106 14 -134 -74 -66 -214 -51
-408 46 -587 64 -120 148 -180 254 -182 41 -1 49 -4 45 -17 -26 -83 -36 -138
-36 -207 0 -71 4 -89 31 -143 32 -64 77 -106 141 -131 18 -8 35 -15 37 -16 1
-1 -11 -20 -28 -41 -39 -49 -59 -98 -67 -166 -7 -62 14 -149 46 -190 11 -14
20 -27 20 -30 0 -3 -17 -8 -37 -12 -68 -12 -155 -46 -199 -75 -107 -74 -149
-224 -99 -352 6 -16 0 -18 -62 -18 -89 0 -150 -21 -208 -72 -50 -44 -79 -93
-90 -151 -8 -42 -15 -45 -39 -18 -34 37 -116 65 -191 65 -83 0 -150 -26 -207
-82 l-38 -36 -37 36 c-58 56 -125 82 -208 82 -75 0 -157 -28 -191 -65 -23 -25
-34 -24 -34 4 0 41 -47 122 -94 164 -59 52 -120 73 -209 73 -62 0 -68 2 -62
18 52 120 7 278 -99 352 -43 29 -131 63 -198 75 l-37 7 32 56 c28 50 32 66 32
132 0 89 -15 135 -62 196 -19 25 -33 47 -31 48 2 2 18 8 36 16 65 26 109 67
142 133 27 56 31 75 31 140 0 65 -16 158 -37 210 -4 10 7 14 45 15 150 3 264
132 322 361 28 112 23 257 -14 381 -23 75 -52 122 -76 119 -3 0 -37 -9 -74
-19z m62 -244 c18 -146 -21 -305 -102 -420 -32 -46 -147 -88 -147 -53 0 6 32
92 71 190 39 98 70 179 68 181 -2 1 -28 12 -57 24 l-53 21 -8 -22 c-54 -138
-126 -314 -132 -321 -13 -14 -29 40 -29 98 0 173 133 356 303 416 l52 19 12
-28 c7 -16 16 -63 22 -105z m1657 93 c59 -28 144 -107 184 -169 41 -64 70
-157 70 -225 0 -59 -16 -114 -29 -99 -6 7 -79 183 -132 321 l-8 23 -48 -21
c-26 -11 -51 -24 -55 -28 -5 -4 24 -85 62 -181 39 -96 70 -180 70 -187 0 -20
-41 -16 -90 10 -75 39 -147 185 -159 327 -7 73 1 164 18 227 11 40 12 41 42
33 17 -5 51 -19 75 -31z m-2233 -503 c116 -86 163 -146 206 -261 31 -81 34
-208 7 -248 -10 -15 -22 -24 -26 -20 -4 4 -33 86 -65 181 -64 194 -54 184
-141 147 l-33 -14 64 -190 c43 -128 59 -191 51 -191 -7 0 -28 5 -47 11 -114
38 -198 238 -172 406 10 62 68 233 79 233 3 0 37 -24 77 -54z m2790 -31 c15
-38 31 -90 36 -115 31 -136 -16 -316 -103 -398 -29 -27 -82 -52 -112 -52 -8 0
9 63 52 192 35 105 63 192 61 193 -5 4 -101 35 -108 35 -4 0 -33 -78 -64 -172
-32 -95 -61 -177 -66 -182 -5 -6 -18 11 -30 40 -21 46 -21 54 -11 129 14 96
61 200 121 267 48 54 182 152 192 141 3 -5 18 -39 32 -78z m-2925 -620 c88
-47 185 -125 219 -176 32 -49 44 -151 21 -182 -13 -17 -23 -5 -118 127 -57 80
-105 146 -106 146 -7 0 -94 -64 -94 -70 0 -3 47 -71 104 -150 96 -133 103
-146 84 -154 -24 -12 -99 6 -133 32 -40 29 -107 142 -138 231 -23 65 -31 111
-35 184 l-5 98 67 -25 c37 -14 97 -42 134 -61z m3140 -12 c-6 -120 -47 -246
-108 -337 -49 -72 -89 -102 -146 -112 -82 -13 -79 -1 33 155 56 80 103 148
103 151 0 6 -86 70 -94 70 -1 0 -49 -65 -106 -145 -74 -103 -107 -142 -114
-135 -6 6 -11 41 -11 79 0 57 4 74 27 109 53 79 201 179 350 237 35 13 65 24
67 25 2 0 1 -44 -1 -97z m-2801 -599 c112 -28 169 -65 192 -126 8 -21 7 -28
-2 -28 -6 0 -102 27 -211 60 -110 33 -205 60 -211 60 -6 0 -19 -25 -27 -56
-15 -54 -15 -56 6 -63 11 -4 112 -34 223 -67 113 -33 203 -64 203 -71 0 -17
-55 -60 -96 -73 -48 -16 -147 -6 -222 22 -122 45 -225 135 -281 246 -37 73
-37 79 -9 88 114 36 308 40 435 8z m2651 2 c35 -8 66 -17 70 -20 3 -4 -9 -36
-26 -72 -37 -75 -112 -159 -181 -204 -96 -61 -251 -95 -325 -70 -41 13 -96 56
-96 73 0 7 90 38 203 71 111 33 212 63 223 67 21 7 21 9 6 63 -8 31 -21 56
-27 56 -6 0 -101 -27 -211 -60 -109 -33 -204 -60 -211 -60 -33 0 34 93 86 119
36 19 125 45 186 55 48 7 235 -4 303 -18z m-2186 -462 c26 -14 68 -59 68 -75
0 -5 -87 -10 -192 -11 l-193 -3 0 -60 0 -60 193 -3 c105 -1 192 -6 192 -10 -1
-15 -36 -51 -70 -71 -27 -16 -52 -21 -111 -21 -128 0 -269 44 -395 125 l-58
37 29 25 c41 33 177 100 239 118 64 19 189 33 236 27 19 -3 47 -11 62 -18z
m1568 5 c79 -13 189 -57 272 -111 l62 -40 -29 -24 c-51 -41 -187 -103 -269
-124 -108 -27 -220 -27 -265 1 -34 20 -70 57 -71 71 0 4 87 9 193 10 l192 3 0
60 0 60 -192 3 c-106 1 -193 5 -193 8 0 15 24 45 52 65 52 37 101 41 248 18z
m-1100 -164 c0 -3 -57 -71 -127 -152 l-127 -146 45 -38 c24 -21 47 -37 50 -36
3 1 64 69 134 151 114 133 130 147 141 131 20 -27 26 -89 14 -134 -32 -120
-282 -280 -498 -319 l-53 -10 6 42 c12 75 65 220 106 289 55 93 132 183 177
206 33 18 132 29 132 16z m529 -15 c69 -35 178 -181 231 -311 27 -64 67 -216
59 -223 -2 -2 -35 3 -74 11 -201 41 -446 202 -475 312 -16 61 5 161 31 145 5
-3 64 -69 131 -147 66 -78 123 -143 127 -144 3 -2 26 14 51 35 l44 39 -127
146 c-70 81 -127 149 -127 152 0 13 95 3 129 -15z"/>
<path fill="ff6b09" style="fill: var(--color1, #0adebf)"  d="M1830 2523 c-8 -3 -60 -27 -115 -53 -55 -25 -115 -52 -133 -60 -19
-7 -38 -24 -43 -37 -4 -12 -15 -23 -22 -23 -10 0 -17 -17 -21 -50 -7 -55 -3
-70 20 -70 10 0 14 -12 14 -42 0 -24 3 -94 7 -155 6 -111 6 -113 -15 -113 -19
0 -22 -6 -22 -40 l0 -40 350 0 350 0 0 39 c0 31 -4 40 -22 44 -20 6 -21 9 -15
113 4 59 7 127 7 151 0 32 4 43 15 43 12 0 15 14 15 65 0 49 -3 65 -14 65 -7
0 -16 8 -18 18 -3 11 -59 41 -159 85 -85 37 -156 67 -159 66 -3 0 -12 -3 -20
-6z m224 -434 c4 -82 4 -154 1 -159 -3 -6 -19 -10 -35 -10 l-30 0 3 153 c1 83
5 154 9 157 4 3 16 6 26 7 18 1 20 -10 26 -148z m-354 99 c0 -24 3 -94 7 -155
l6 -113 -31 0 c-17 0 -34 5 -37 10 -3 6 -3 75 1 155 7 144 7 145 30 145 21 0
24 -5 24 -42z m170 0 c0 -24 3 -94 7 -155 l6 -113 -33 0 -33 0 6 113 c4 61 7
131 7 155 0 35 3 42 20 42 17 0 20 -7 20 -42z"/>
</g>
</svg>
