<svg width="401" height="472" xmlns="http://www.w3.org/2000/svg" fill="none">
 <defs>
  <clipPath id="clip0">
   <path id="svg_1" d="m0,0l455,0l0,472l-455,0l0,-472z" fill="#fff"/>
  </clipPath>
 </defs>
 <g>
  <title>Layer 1</title>
  <g stroke="null" id="svg_2" fill="#3D3D3D" clip-path="url(#clip0)">
   <path stroke="null" id="svg_3" d="m444.44302,296.07845c-5.7531,-11.33336 -13.68899,-22.49293 -25.29356,-35.38387c-29.2615,-32.35606 -38.18834,-104.50852 -38.28774,-105.19996c-0.39659,-3.46088 -3.17373,-6.31582 -6.84345,-7.3539a10.05485,8.83516 0 0 0 -10.51422,2.50831c-34.9152,34.34671 -20.23527,87.37884 -12.30042,108.57533c2.18279,5.79632 4.56335,12.63073 6.24805,19.55156c12.89478,55.97443 -12.00115,81.32323 -17.85366,86.42719c-5.65369,1.3838 -9.52223,0.69236 -13.09359,-2.68209c-12.29938,-11.85194 -16.36568,-50.69668 -10.61258,-101.30693c1.1908,-10.29528 0.89258,-19.55248 -0.79422,-28.20375c-12.133,-62.20566 -56.61961,-102.10779 -67.94479,-116.10117c-31.14607,-40.48783 -34.3198,-107.88205 -34.41921,-108.48798c-0.09836,-3.20067 -2.18174,-6.05561 -5.45488,-7.44033c-3.17477,-1.3838 -7.04227,-1.21094 -10.01823,0.60593c-51.97569,31.05869 -47.51175,105.89232 -40.27172,147.67844c1.6868,9.68935 4.95993,19.55248 10.61363,32.01034c20.13586,44.55464 -3.9669,102.08572 -4.16571,102.60522c-0.19882,0.51858 -0.39659,0.95073 -0.49599,1.47023c-3.07537,14.1883 -8.23307,22.66671 -13.98617,22.66671c-0.59435,0 -1.18976,-0.08643 -1.88456,-0.25929c-7.04227,-1.29829 -10.71199,-7.8734 -10.8114,-13.58329c-0.39659,-73.79555 -84.60869,-98.62485 -85.50127,-98.88506c-3.76913,-1.03808 -7.93589,-0.08643 -10.51422,2.59566c-2.67878,2.68209 -3.17477,6.40225 -1.38857,9.51649c0.99094,1.81687 4.16467,9.77578 1.98293,37.8931c-1.88352,25.26237 -7.14167,50.26453 -15.57251,74.22862c-20.03645,57.44465 -16.86168,111.86242 -16.66391,114.45716c15.40718,147.33916 256.34581,173.15597 399.33834,90.14736c15.67192,-9.08434 28.46833,-19.46513 37.89116,-30.88492c52.76991,-64.02069 21.72325,-150.96646 -1.38753,-197.1651zm-366.50652,140.75761c0.29718,4.75824 -3.86854,8.82505 -9.32446,9.08434l-0.5954,0c-5.25711,0 -9.62164,-3.54731 -9.91882,-8.13269c-0.89258,-12.63073 -0.69376,-25.86738 0.39763,-40.22854c0.39659,-4.75824 5.15665,-8.30555 10.61258,-8.04626c5.45592,0.34572 9.62164,4.49804 9.22505,9.25628c-1.09244,13.67064 -1.29021,26.12851 -0.39763,38.06688l0.00105,0zm4.85843,-76.65049c-0.59435,4.41161 -4.86052,7.61319 -9.81941,7.61319c-0.39763,0 -0.79317,0 -1.28916,-0.08643c-5.35756,-0.60593 -9.22505,-4.84559 -8.62965,-9.60292l4.76112,-33.39506c0.69376,-4.67181 5.55429,-8.04534 11.10857,-7.52584c5.45592,0.60501 9.32342,4.9311 8.62965,9.68935l-4.76112,33.30771zm294.54147,-241.82089c-5.40988,-0.73098 -9.12041,-5.14074 -8.28643,-9.85945c0.61947,-3.51512 4.20339,-21.51002 13.92862,-30.5585c3.74402,-3.48846 10.0109,-3.67051 14.02175,-0.39261a9.79534,8.60714 0 0 1 0.44995,12.22892c-4.11653,3.83234 -7.62302,14.79791 -8.79498,21.35923c-0.83712,4.66814 -5.82949,7.9442 -11.3189,7.22242zm-361.60728,43.09361c-1.89817,-6.43351 -6.61638,-17.04509 -11.14415,-20.50872c-4.12177,-3.15193 -4.533,-8.61725 -0.92083,-12.20777c3.6038,-3.5988 9.86545,-3.96658 13.99768,-0.8027c10.68792,8.17315 16.27255,25.77635 17.28547,29.21884c1.35613,4.62584 -1.84062,9.33168 -7.13853,10.52239c-5.41616,1.18795 -10.72978,-1.67343 -12.07963,-6.22204z"/>
  </g>
 </g>
</svg>